<?xml version="1.0" ?>
<!-- Uploaded to: SVG Repo, www.svgrepo.com, Generator: SVG Repo Mixer Tools -->
<svg width="800px" height="800px" viewBox="0 0 64 64" id="svg5" version="1.1" xml:space="preserve" xmlns="http://www.w3.org/2000/svg" xmlns:svg="http://www.w3.org/2000/svg">
<defs id="defs2"/>
<g id="layer1" transform="translate(-288,-288)">
<path d="m 340.0332,292.00977 c -0.13599,-0.006 -0.2717,-0.004 -0.40625,0.004 -1.61449,0.0914 -3.10213,1.1263 -3.68164,2.73633 l -2.82226,7.8418 -3.1543,8.76367 -8.92383,24.78711 -1.76172,-0.91016 -8.4414,-4.36914 c -2.05517,-1.06346 -4.61877,-0.0597 -5.40235,2.11719 l -1.1875,3.30273 c -0.0526,-3.9e-4 -0.10335,-0.002 -0.15625,-0.002 -1.78782,0 -3.33629,0.22644 -4.52734,0.64258 -0.59553,0.20807 -1.1051,0.45839 -1.52734,0.8164 -0.42223,0.358 -0.78907,0.89618 -0.78907,1.54102 0,0.0862 0.005,0.16974 0.0176,0.25195 a 1,1 0 0 0 -0.0176,0.16602 v 4 c 0,0.64484 0.36684,1.183 0.78907,1.54101 0.42224,0.358 0.93181,0.60834 1.52734,0.81641 1.19105,0.41614 2.73952,0.64258 4.52734,0.64258 1.78782,0 3.40587,-0.22666 4.66211,-0.63477 0.62812,-0.20405 1.16804,-0.4465 1.61914,-0.79297 0.42421,-0.32582 0.82294,-0.81824 0.86914,-1.45117 l 11.125,3.99805 c 1.6,0.57506 3.39101,-0.26751 3.9668,-1.86719 l 11.4082,-31.69531 0.006,-0.0137 c 0.0103,-0.0269 0.0195,-0.0543 0.0273,-0.082 l 1.54687,-4.29297 0.002,-0.006 c 0.002,-0.005 0.004,-0.0104 0.006,-0.0156 l 1.57032,-4.36523 2.85156,-7.92188 c 0.77266,-2.14666 -0.35258,-4.53679 -2.5,-5.30859 -0.40264,-0.14471 -0.81467,-0.22327 -1.22266,-0.24023 z m -0.30664,1.99218 c 0.27938,-0.0135 0.56714,0.0286 0.85156,0.13086 1.13784,0.40895 1.70582,1.6119 1.29688,2.74805 l -2.66211,7.39844 -2.51172,0.62109 -1.53711,-2.07617 2.66211,-7.39649 c 0.30671,-0.85208 1.06225,-1.38537 1.90039,-1.42578 z m -5.37695,11.08203 1.14258,1.54102 c 0.24027,0.32383 0.65151,0.47169 1.04297,0.375 l 1.86328,-0.46094 -0.76367,2.1211 -2.50977,0.62109 -1.53906,-2.07617 z m -1.57617,4.38086 1.14258,1.54102 c 0.24027,0.32382 0.6515,0.47168 1.04296,0.375 l 1.86133,-0.46094 -0.76172,2.1211 -2.50976,0.62109 -1.53906,-2.07617 z m -1.57813,4.38282 1.14258,1.54101 c 0.24027,0.32383 0.65151,0.47169 1.04297,0.375 l 1.86328,-0.46094 -10.78906,29.97266 c -0.20953,0.58212 -0.82485,0.87179 -1.4082,0.66211 l -5.89454,-2.11914 2.25586,-6.27148 1.73242,0.89648 c 0.53674,0.27776 1.19531,0.0197 1.4004,-0.54883 z m -22.05273,18.58007 c 0.26105,0.0129 0.52615,0.0819 0.7793,0.21289 l 7.69335,3.98047 -2.34765,6.52149 -4.01563,-1.44336 v -2 a 1,1 0 0 0 -0.0195,-0.18164 c 0.011,-0.0767 0.0195,-0.15523 0.0195,-0.23633 0,-0.69203 -0.4239,-1.22383 -0.875,-1.57031 -0.4511,-0.34648 -0.99102,-0.59087 -1.61914,-0.79492 -0.70459,-0.2289 -1.52743,-0.3991 -2.42578,-0.50586 l 0.99024,-2.75196 c 0.28921,-0.8035 1.03716,-1.26905 1.82031,-1.23047 z m -5.04688,5.85352 c 1.61225,0 3.073,0.22136 4.04492,0.53711 0.47087,0.15297 0.80838,0.33165 0.98633,0.46289 -0.17782,0.13127 -0.51511,0.30981 -0.98633,0.46289 -0.97192,0.31575 -2.43267,0.53711 -4.04492,0.53711 -1.61225,0 -2.98646,-0.22158 -3.86718,-0.5293 -0.44036,-0.15385 -0.75236,-0.33453 -0.89454,-0.45507 -0.013,-0.011 -0.01,-0.007 -0.0195,-0.0156 -0.0975,0.0878 -0.0625,0.0841 -0.0625,0 0,-0.0841 -0.035,-0.0878 0.0625,0 0.01,-0.009 0.007,-0.005 0.0195,-0.0156 0.14218,-0.12054 0.45418,-0.30121 0.89454,-0.45507 0.88072,-0.30772 2.25493,-0.5293 3.86718,-0.5293 z m 5.15625,3.18555 v 0.002 2.13672 c -0.0148,0.0143 -0.0396,0.0385 -0.0937,0.0801 -0.17196,0.13207 -0.53161,0.31869 -1.01758,0.47656 -0.97197,0.31578 -2.43267,0.53711 -4.04492,0.53711 -1.61225,0 -2.98646,-0.22158 -3.86718,-0.5293 -0.44036,-0.15386 -0.75236,-0.33453 -0.89454,-0.45508 -0.0619,-0.0525 -0.0752,-0.0716 -0.082,-0.0781 v -2.1211 c 0.10388,0.0417 0.20668,0.0867 0.31641,0.125 1.19105,0.41614 2.73952,0.63868 4.52734,0.63868 1.78782,0 3.40587,-0.22471 4.66211,-0.63282 0.17126,-0.0556 0.33601,-0.117 0.49414,-0.17968 z" id="rect1123" style="color:#000000;fill:#000000;fill-rule:evenodd;stroke-linecap:round;stroke-linejoin:round;stroke-miterlimit:4.1;-inkscape-stroke:none"/>
</g>
</svg>