<?xml version="1.0" standalone="no"?>
<!DOCTYPE svg PUBLIC "-//W3C//DTD SVG 20010904//EN"
 "http://www.w3.org/TR/2001/REC-SVG-20010904/DTD/svg10.dtd">
<svg version="1.0" xmlns="http://www.w3.org/2000/svg"
 width="512.000000pt" height="512.000000pt" viewBox="0 0 512.000000 512.000000"
 preserveAspectRatio="xMidYMid meet">
<metadata>
Created by potrace 1.14, written by Peter Selinger 2001-2017
</metadata>
<g transform="translate(0.000000,512.000000) scale(0.100000,-0.100000)"
fill="#000000" stroke="none">
<path d="M2483 5113 c42 -2 112 -2 155 0 42 1 7 3 -78 3 -85 0 -120 -2 -77 -3z"/>
<path d="M2313 5103 c15 -2 39 -2 55 0 15 2 2 4 -28 4 -30 0 -43 -2 -27 -4z"/>
<path d="M2753 5103 c15 -2 39 -2 55 0 15 2 2 4 -28 4 -30 0 -43 -2 -27 -4z"/>
<path d="M2223 5093 c9 -2 25 -2 35 0 9 3 1 5 -18 5 -19 0 -27 -2 -17 -5z"/>
<path d="M2863 5093 c9 -2 25 -2 35 0 9 3 1 5 -18 5 -19 0 -27 -2 -17 -5z"/>
<path d="M2153 5083 c9 -2 25 -2 35 0 9 3 1 5 -18 5 -19 0 -27 -2 -17 -5z"/>
<path d="M2943 5083 c9 -2 23 -2 30 0 6 3 -1 5 -18 5 -16 0 -22 -2 -12 -5z"/>
<path d="M2035 5065 c-67 -17 -36 -18 40 -1 33 8 49 14 35 14 -14 0 -47 -6
-75 -13z"/>
<path d="M2998 5073 c6 -2 18 -2 25 0 6 3 1 5 -13 5 -14 0 -19 -2 -12 -5z"/>
<path d="M3065 5060 c17 -4 39 -8 50 -8 16 0 15 2 -5 8 -14 4 -36 8 -50 8 -22
0 -22 -1 5 -8z"/>
<path d="M2330 5050 c-416 -43 -815 -184 -1143 -403 -167 -112 -259 -188 -402
-331 -196 -197 -350 -415 -475 -671 -382 -779 -318 -1737 163 -2458 112 -167
188 -259 331 -402 197 -196 415 -350 671 -475 779 -382 1737 -318 2458 163
167 112 259 188 402 331 196 197 350 415 475 671 382 779 318 1737 -163 2458
-112 167 -188 259 -331 402 -382 380 -856 616 -1406 700 -124 19 -459 27 -580
15z m-336 -894 c92 -27 194 -83 252 -138 109 -103 155 -211 157 -368 2 -159
-42 -267 -147 -369 -68 -65 -137 -104 -239 -135 l-69 -22 283 -369 282 -370
220 0 220 0 218 -600 c120 -330 218 -602 219 -605 2 -14 35 71 235 618 l218
592 212 0 213 0 -81 -207 c-44 -115 -202 -521 -351 -903 l-271 -695 -175 -3
-175 -2 -344 895 -345 895 -240 0 -241 0 -265 368 c-194 267 -272 368 -288
370 l-22 3 0 -370 0 -371 -205 0 -205 0 0 906 0 905 438 -4 c379 -3 445 -6
496 -21z"/>
<path d="M1470 3634 l0 -226 183 4 c173 3 185 4 232 29 72 36 108 92 113 173
5 77 -9 126 -51 173 -57 65 -88 73 -294 73 l-183 0 0 -226z"/>
<path d="M1958 5043 c7 -3 16 -2 19 1 4 3 -2 6 -13 5 -11 0 -14 -3 -6 -6z"/>
<path d="M3148 5043 c7 -3 16 -2 19 1 4 3 -2 6 -13 5 -11 0 -14 -3 -6 -6z"/>
<path d="M1918 5033 c7 -3 16 -2 19 1 4 3 -2 6 -13 5 -11 0 -14 -3 -6 -6z"/>
<path d="M3188 5033 c7 -3 16 -2 19 1 4 3 -2 6 -13 5 -11 0 -14 -3 -6 -6z"/>
<path d="M1878 5023 c7 -3 16 -2 19 1 4 3 -2 6 -13 5 -11 0 -14 -3 -6 -6z"/>
<path d="M3365 4979 c249 -83 512 -220 721 -374 49 -36 71 -50 49 -30 -79 71
-283 199 -445 279 -145 72 -419 177 -461 176 -8 0 54 -23 136 -51z"/>
<path d="M1732 4983 c-40 -14 -72 -27 -69 -29 2 -2 41 9 88 25 46 16 77 29 69
29 -8 0 -48 -11 -88 -25z"/>
<path d="M1620 4940 c-8 -5 -10 -10 -5 -10 6 0 17 5 25 10 8 5 11 10 5 10 -5
0 -17 -5 -25 -10z"/>
<path d="M1570 4920 c-8 -5 -10 -10 -5 -10 6 0 17 5 25 10 8 5 11 10 5 10 -5
0 -17 -5 -25 -10z"/>
<path d="M1480 4880 c-30 -16 -50 -29 -45 -29 6 0 35 13 65 29 30 16 51 29 45
29 -5 0 -35 -13 -65 -29z"/>
<path d="M1358 4819 c-32 -16 -58 -32 -58 -34 0 -3 27 8 60 25 33 17 60 32 60
35 0 7 2 8 -62 -26z"/>
<path d="M1243 4754 c-24 -14 -43 -27 -43 -30 0 -6 67 33 85 48 17 15 1 8 -42
-18z"/>
<path d="M1112 4670 c-40 -28 -72 -53 -72 -56 0 -4 121 77 145 98 27 23 -10 2
-73 -42z"/>
<path d="M960 4558 c-81 -65 -265 -243 -333 -323 -28 -33 8 2 81 77 73 75 175
171 227 213 83 67 103 86 93 85 -2 -1 -32 -24 -68 -52z"/>
<path d="M4312 4412 c75 -73 171 -175 213 -227 87 -107 111 -128 38 -32 -59
76 -246 271 -328 340 -33 28 2 -8 77 -81z"/>
<path d="M535 4124 c-141 -172 -319 -503 -398 -740 -26 -78 -47 -148 -47 -155
0 -8 23 54 51 136 84 251 224 520 373 718 71 93 82 116 21 41z"/>
<path d="M4656 4013 c49 -70 74 -101 59 -73 -15 27 -96 140 -101 140 -3 0 16
-30 42 -67z"/>
<path d="M4741 3885 c12 -22 26 -44 32 -50 15 -16 -20 48 -38 70 -9 11 -7 2 6
-20z"/>
<path d="M4805 3770 c14 -27 28 -50 30 -50 3 0 -6 23 -20 50 -14 28 -28 50
-30 50 -3 0 6 -22 20 -50z"/>
<path d="M4851 3685 c0 -5 13 -35 29 -65 16 -30 29 -50 29 -45 0 6 -13 35 -29
65 -16 30 -29 51 -29 45z"/>
<path d="M4910 3555 c0 -5 5 -17 10 -25 5 -8 10 -10 10 -5 0 6 -5 17 -10 25
-5 8 -10 11 -10 5z"/>
<path d="M4930 3505 c0 -5 5 -17 10 -25 5 -8 10 -10 10 -5 0 6 -5 17 -10 25
-5 8 -10 11 -10 5z"/>
<path d="M4955 3442 c19 -64 54 -156 54 -146 1 14 -47 155 -55 163 -4 3 -3 -5
1 -17z"/>
<path d="M5021 3234 c0 -11 3 -14 6 -6 3 7 2 16 -1 19 -3 4 -6 -2 -5 -13z"/>
<path d="M81 3194 c0 -11 3 -14 6 -6 3 7 2 16 -1 19 -3 4 -6 -2 -5 -13z"/>
<path d="M5031 3194 c0 -11 3 -14 6 -6 3 7 2 16 -1 19 -3 4 -6 -2 -5 -13z"/>
<path d="M71 3154 c0 -11 3 -14 6 -6 3 7 2 16 -1 19 -3 4 -6 -2 -5 -13z"/>
<path d="M5041 3154 c0 -11 3 -14 6 -6 3 7 2 16 -1 19 -3 4 -6 -2 -5 -13z"/>
<path d="M55 3090 c-4 -23 -5 -43 -2 -46 2 -3 7 14 11 37 4 23 5 44 2 46 -2 2
-7 -14 -11 -37z"/>
<path d="M5052 3120 c-1 -8 5 -42 12 -75 8 -33 14 -49 14 -35 0 28 -25 133
-26 110z"/>
<path d="M42 3010 c0 -14 2 -19 5 -12 2 6 2 18 0 25 -3 6 -5 1 -5 -13z"/>
<path d="M32 2955 c0 -16 2 -22 5 -12 2 9 2 23 0 30 -3 6 -5 -1 -5 -18z"/>
<path d="M5082 2950 c0 -19 2 -27 5 -17 2 9 2 25 0 35 -3 9 -5 1 -5 -18z"/>
<path d="M22 2880 c0 -19 2 -27 5 -17 2 9 2 25 0 35 -3 9 -5 1 -5 -18z"/>
<path d="M5092 2880 c0 -19 2 -27 5 -17 2 9 2 25 0 35 -3 9 -5 1 -5 -18z"/>
<path d="M13 2780 c0 -30 2 -43 4 -27 2 15 2 39 0 55 -2 15 -4 2 -4 -28z"/>
<path d="M5103 2780 c0 -30 2 -43 4 -27 2 15 2 39 0 55 -2 15 -4 2 -4 -28z"/>
<path d="M4 2560 c0 -85 2 -120 3 -77 2 42 2 112 0 155 -1 42 -3 7 -3 -78z"/>
<path d="M5114 2560 c0 -85 2 -120 3 -77 2 42 2 112 0 155 -1 42 -3 7 -3 -78z"/>
<path d="M13 2340 c0 -30 2 -43 4 -27 2 15 2 39 0 55 -2 15 -4 2 -4 -28z"/>
<path d="M5103 2340 c0 -30 2 -43 4 -27 2 15 2 39 0 55 -2 15 -4 2 -4 -28z"/>
<path d="M22 2240 c0 -19 2 -27 5 -17 2 9 2 25 0 35 -3 9 -5 1 -5 -18z"/>
<path d="M5092 2240 c0 -19 2 -27 5 -17 2 9 2 25 0 35 -3 9 -5 1 -5 -18z"/>
<path d="M32 2170 c0 -19 2 -27 5 -17 2 9 2 25 0 35 -3 9 -5 1 -5 -18z"/>
<path d="M5082 2165 c0 -16 2 -22 5 -12 2 9 2 23 0 30 -3 6 -5 -1 -5 -18z"/>
<path d="M42 2110 c0 -28 25 -133 26 -110 1 8 -5 42 -12 75 -8 33 -14 49 -14
35z"/>
<path d="M5072 2110 c0 -14 2 -19 5 -12 2 6 2 18 0 25 -3 6 -5 1 -5 -13z"/>
<path d="M5056 2039 c-4 -23 -5 -44 -2 -46 2 -2 7 14 11 37 4 23 5 43 2 46 -2
3 -7 -14 -11 -37z"/>
<path d="M71 1964 c0 -11 3 -14 6 -6 3 7 2 16 -1 19 -3 4 -6 -2 -5 -13z"/>
<path d="M5041 1964 c0 -11 3 -14 6 -6 3 7 2 16 -1 19 -3 4 -6 -2 -5 -13z"/>
<path d="M81 1924 c0 -11 3 -14 6 -6 3 7 2 16 -1 19 -3 4 -6 -2 -5 -13z"/>
<path d="M5031 1924 c0 -11 3 -14 6 -6 3 7 2 16 -1 19 -3 4 -6 -2 -5 -13z"/>
<path d="M91 1884 c0 -11 3 -14 6 -6 3 7 2 16 -1 19 -3 4 -6 -2 -5 -13z"/>
<path d="M4977 1750 c-80 -241 -217 -506 -372 -716 -36 -49 -50 -71 -30 -49
71 79 199 283 279 445 73 147 183 437 174 459 -2 5 -25 -58 -51 -139z"/>
<path d="M111 1825 c-1 -15 50 -167 55 -162 2 2 -9 41 -25 88 -16 46 -30 80
-30 74z"/>
<path d="M170 1645 c0 -5 5 -17 10 -25 5 -8 10 -10 10 -5 0 6 -5 17 -10 25 -5
8 -10 11 -10 5z"/>
<path d="M190 1595 c0 -5 5 -17 10 -25 5 -8 10 -10 10 -5 0 6 -5 17 -10 25 -5
8 -10 11 -10 5z"/>
<path d="M211 1545 c0 -5 13 -35 29 -65 16 -30 29 -50 29 -45 0 6 -13 35 -29
65 -16 30 -29 51 -29 45z"/>
<path d="M305 1350 c14 -27 28 -50 30 -50 3 0 -6 23 -20 50 -14 28 -28 50 -30
50 -3 0 6 -22 20 -50z"/>
<path d="M353 1265 c9 -16 23 -39 32 -50 9 -11 7 -2 -6 20 -27 49 -47 72 -26
30z"/>
<path d="M405 1180 c15 -27 96 -140 101 -140 3 0 -16 30 -42 68 -49 69 -74
100 -59 72z"/>
<path d="M557 968 c59 -77 246 -272 328 -341 33 -28 -2 8 -77 81 -75 73 -171
175 -213 227 -87 107 -111 128 -38 33z"/>
<path d="M4410 808 c-68 -72 -168 -167 -222 -211 -54 -44 -98 -82 -98 -84 0
-12 139 106 239 202 98 95 220 226 209 225 -1 -1 -59 -60 -128 -132z"/>
<path d="M985 545 c79 -71 283 -199 445 -279 145 -72 419 -177 461 -176 8 0
-53 23 -136 51 -249 83 -512 220 -721 374 -49 36 -71 50 -49 30z"/>
<path d="M4006 459 c-71 -50 -93 -69 -66 -54 27 14 140 96 140 101 0 6 0 6
-74 -47z"/>
<path d="M3877 376 c-48 -29 -61 -43 -22 -23 31 16 74 46 65 46 -3 0 -22 -10
-43 -23z"/>
<path d="M3768 314 c-27 -13 -48 -27 -48 -29 0 -3 23 6 50 20 28 14 50 28 50
30 0 7 1 7 -52 -21z"/>
<path d="M3620 240 c-30 -16 -50 -29 -45 -29 6 0 35 13 65 29 30 16 51 29 45
29 -5 0 -35 -13 -65 -29z"/>
<path d="M3530 200 c-8 -5 -10 -10 -5 -10 6 0 17 5 25 10 8 5 11 10 5 10 -5 0
-17 -5 -25 -10z"/>
<path d="M3480 180 c-8 -5 -10 -10 -5 -10 6 0 17 5 25 10 8 5 11 10 5 10 -5 0
-17 -5 -25 -10z"/>
<path d="M3365 140 c-44 -16 -75 -29 -69 -29 12 -1 155 46 162 54 10 10 -13 3
-93 -25z"/>
<path d="M3228 93 c7 -3 16 -2 19 1 4 3 -2 6 -13 5 -11 0 -14 -3 -6 -6z"/>
<path d="M1918 83 c7 -3 16 -2 19 1 4 3 -2 6 -13 5 -11 0 -14 -3 -6 -6z"/>
<path d="M3188 83 c7 -3 16 -2 19 1 4 3 -2 6 -13 5 -11 0 -14 -3 -6 -6z"/>
<path d="M1958 73 c7 -3 16 -2 19 1 4 3 -2 6 -13 5 -11 0 -14 -3 -6 -6z"/>
<path d="M3148 73 c7 -3 16 -2 19 1 4 3 -2 6 -13 5 -11 0 -14 -3 -6 -6z"/>
<path d="M2010 60 c14 -4 36 -8 50 -8 22 0 22 1 -5 8 -16 4 -39 8 -50 8 -16 0
-15 -2 5 -8z"/>
<path d="M3040 55 c-30 -7 -44 -13 -30 -13 14 0 48 6 75 13 65 16 27 17 -45 0z"/>
<path d="M2098 43 c6 -2 18 -2 25 0 6 3 1 5 -13 5 -14 0 -19 -2 -12 -5z"/>
<path d="M2153 33 c9 -2 23 -2 30 0 6 3 -1 5 -18 5 -16 0 -22 -2 -12 -5z"/>
<path d="M2933 33 c9 -2 25 -2 35 0 9 3 1 5 -18 5 -19 0 -27 -2 -17 -5z"/>
<path d="M2223 23 c9 -2 25 -2 35 0 9 3 1 5 -18 5 -19 0 -27 -2 -17 -5z"/>
<path d="M2863 23 c9 -2 25 -2 35 0 9 3 1 5 -18 5 -19 0 -27 -2 -17 -5z"/>
<path d="M2313 13 c15 -2 39 -2 55 0 15 2 2 4 -28 4 -30 0 -43 -2 -27 -4z"/>
<path d="M2753 13 c15 -2 39 -2 55 0 15 2 2 4 -28 4 -30 0 -43 -2 -27 -4z"/>
<path d="M2483 3 c42 -2 112 -2 155 0 42 1 7 3 -78 3 -85 0 -120 -2 -77 -3z"/>
</g>
</svg>
